<?xml version="1.0" standalone="no"?>
<!DOCTYPE svg PUBLIC "-//W3C//DTD SVG 20010904//EN"
 "http://www.w3.org/TR/2001/REC-SVG-20010904/DTD/svg10.dtd">
<svg version="1.0" xmlns="http://www.w3.org/2000/svg"
 width="1654.000000pt" height="1654.000000pt" viewBox="0 0 1654.000000 1654.000000"
 preserveAspectRatio="xMidYMid meet">

<g transform="translate(0.000000,1654.000000) scale(0.100000,-0.100000)"
fill="#000000" stroke="none">
<path d="M0 10035 c0 -3578 4 -6505 9 -6505 4 0 21 -11 37 -25 16 -14 63 -46
104 -71 41 -25 82 -50 90 -55 36 -22 213 -110 247 -123 161 -61 306 -102 438
-125 92 -15 104 -19 70 -23 -37 -4 -35 -5 15 -7 30 -1 49 -5 42 -8 -8 -3 -12
-29 -12 -79 0 -67 -2 -74 -20 -74 -18 0 -20 -7 -20 -80 0 -86 -1 -87 -62 -81
-16 2 -18 -7 -18 -73 0 -50 -4 -76 -13 -79 -6 -3 -3 -6 8 -6 17 -1 18 -3 5
-12 -11 -8 -4 -9 27 -5 23 3 88 9 145 12 56 3 108 10 113 14 6 5 39 11 75 15
36 4 79 11 95 16 68 20 501 69 559 63 33 -4 61 -3 65 3 7 11 231 -3 243 -15 5
-5 -7 -6 -25 -4 l-32 4 1 -46 c1 -33 -2 -46 -12 -46 -18 0 -20 -80 -1 -80 6
-1 -6 -10 -27 -20 -22 -11 -49 -19 -60 -19 -42 4 -86 -1 -86 -9 0 -5 28 -7 63
-6 58 3 59 2 22 -6 -22 -6 -65 -14 -96 -20 -30 -5 -116 -27 -190 -49 -74 -21
-170 -46 -214 -56 -44 -9 -107 -24 -140 -32 -95 -24 -288 -61 -440 -84 -191
-30 -553 -33 -694 -6 -52 10 -110 25 -129 33 -19 8 -45 14 -58 14 -13 0 -29 6
-36 13 -7 8 -20 12 -30 9 -15 -4 -18 -16 -18 -83 0 -72 2 -79 20 -79 11 0 20
-4 20 -10 0 -5 -7 -7 -16 -3 -8 3 -26 0 -40 -7 l-24 -13 0 -400 0 -399 22 6
c13 3 66 13 118 22 52 8 150 26 217 39 67 14 135 24 150 24 l28 -1 -30 -8
c-23 -6 -25 -8 -8 -9 12 0 25 -6 29 -13 7 -11 -41 -7 -103 9 -14 3 -23 1 -23
-6 0 -6 10 -11 23 -12 21 -1 21 -1 -3 -9 -24 -8 -24 -8 -2 -9 19 -1 22 -6 22
-41 0 -33 -3 -40 -20 -40 -17 0 -20 -7 -20 -40 0 -33 -3 -40 -20 -40 -18 0
-20 -7 -20 -75 0 -67 -2 -75 -19 -75 -24 0 -37 -30 -13 -31 10 0 12 -3 4 -6
-6 -2 -12 -11 -12 -19 0 -10 5 -12 18 -5 9 5 67 19 127 31 61 12 126 26 145
30 73 19 273 33 377 27 117 -6 215 -29 335 -77 42 -16 83 -30 92 -30 9 0 15
-5 13 -12 -1 -7 5 -12 13 -13 22 0 82 -26 103 -44 10 -8 35 -15 55 -14 36 1
36 1 7 -6 -16 -4 -38 -4 -47 1 -31 15 -38 8 -38 -36 0 -44 0 -45 38 -49 20 -2
2 -2 -40 1 -53 3 -78 1 -78 -7 0 -7 35 -11 103 -12 61 -1 92 -4 77 -8 -14 -4
-42 -6 -62 -3 -24 3 -38 0 -38 -6 0 -6 27 -13 63 -15 34 -2 22 -3 -28 -1 -49
2 -105 6 -124 10 -27 6 -32 4 -26 -6 6 -10 -2 -11 -39 -6 -29 5 -46 4 -46 -3
0 -6 -17 -10 -37 -9 -44 2 -239 -27 -333 -48 -101 -24 -294 -83 -389 -119
-158 -60 -250 -77 -413 -79 l-148 -1 0 -232 0 -233 8270 0 8270 0 0 8270 0
8270 -8270 0 -8270 0 0 -6505z m15202 5953 c2 -4 31 -11 66 -14 l63 -7 -46
-47 -47 -48 11 -51 c6 -29 11 -54 11 -56 0 -10 -26 -4 -65 15 -48 23 -58 24
-93 6 -15 -7 -38 -17 -50 -21 -23 -7 -24 -6 -17 49 7 54 6 56 -34 103 l-41 48
28 6 c15 4 41 7 59 8 27 1 35 8 63 58 l32 56 29 -49 c16 -27 30 -52 31 -56z
m-14022 -498 c32 -63 54 -80 103 -80 24 0 47 -3 51 -7 3 -4 -12 -26 -35 -49
l-42 -43 10 -60 9 -59 -50 20 c-63 26 -69 26 -134 0 l-52 -22 4 23 c19 89 18
92 -24 139 -22 26 -40 49 -40 52 0 3 13 6 29 6 73 0 91 10 119 66 14 30 27 54
29 54 1 0 12 -18 23 -40z m1970 -5106 c0 -8 -212 -324 -277 -412 -86 -117
-126 -152 -170 -151 -34 1 -35 2 -13 9 23 7 21 8 -11 9 -66 2 -126 100 -87
139 7 7 9 12 5 12 -15 0 42 54 107 103 85 63 428 295 439 296 4 1 7 -2 7 -5z
m717 -292 c-106 -158 -162 -223 -184 -215 -11 4 -14 3 -9 -5 10 -16 0 -15 -40
4 -19 9 -32 20 -29 24 3 4 -2 10 -10 14 -19 7 -19 30 1 50 8 9 12 16 8 16 -4
0 10 16 32 36 45 42 305 216 312 209 3 -2 -34 -62 -81 -133z m-1617 12 c0 -11
-132 -199 -163 -231 -34 -36 -67 -42 -91 -17 -42 41 -6 86 159 199 78 53 95
62 95 49z m1109 -111 c-41 -69 -107 -158 -138 -187 -27 -26 -34 -28 -56 -18
-33 15 -34 60 -2 89 20 19 207 152 215 153 2 0 -7 -17 -19 -37z m-1205 -425
c-4 -7 -54 -83 -110 -168 -115 -172 -193 -275 -201 -266 -4 3 -12 -3 -20 -14
-14 -20 -73 -29 -73 -11 0 5 -10 11 -22 13 -19 3 -24 11 -29 53 -5 48 -5 49
-10 15 -6 -35 -6 -34 -7 8 -2 38 3 47 36 78 43 41 125 101 237 173 22 14 42
28 45 31 6 7 153 100 158 100 2 0 0 -6 -4 -12z m1076 -153 c0 -7 -51 -88 -59
-95 -4 -3 -42 -59 -86 -125 -95 -144 -89 -136 -146 -196 -42 -45 -50 -49 -90
-48 -27 0 -37 3 -27 7 15 6 13 9 -12 20 -17 8 -30 20 -30 27 0 8 -5 17 -12 21
-7 5 -8 3 -3 -6 5 -9 4 -11 -4 -6 -8 5 -9 20 -5 44 10 53 48 84 367 299 88 59
107 69 107 58z m-760 -211 c0 -7 -94 -150 -232 -357 -86 -127 -203 -293 -221
-312 -6 -7 -29 -33 -50 -58 -24 -28 -44 -44 -53 -40 -8 3 -14 1 -14 -4 0 -5
-19 -14 -43 -21 -45 -14 -68 -9 -125 26 -17 11 -20 18 -11 28 7 9 7 18 -1 33
-14 27 -23 27 -15 1 3 -11 2 -20 -3 -20 -16 0 -29 51 -28 105 1 50 3 54 63
120 10 11 60 52 112 90 102 76 601 412 614 414 4 1 7 -2 7 -5z m923 -211 c-35
-55 -137 -196 -166 -228 -10 -10 -31 -21 -47 -23 -24 -2 -32 2 -45 28 -18 34
-15 42 35 88 24 23 228 162 236 162 3 0 -3 -12 -13 -27z m-921 -605 c-41 -62
-78 -115 -82 -118 -3 -3 -16 -21 -27 -40 -12 -19 -38 -50 -59 -68 -32 -28 -43
-33 -70 -27 -20 3 -35 13 -39 25 -4 11 -11 20 -16 20 -10 0 -12 30 -3 54 8 20
120 110 214 170 41 27 91 59 110 72 19 13 38 24 42 24 3 0 -28 -51 -70 -112z
m11843 -1187 l44 -89 86 -7 c47 -4 87 -11 90 -15 3 -4 -23 -38 -58 -76 l-63
-67 13 -85 c8 -46 12 -87 9 -89 -2 -2 -36 9 -76 26 -40 17 -81 31 -92 31 -10
0 -51 -13 -90 -30 -38 -16 -73 -30 -75 -30 -6 0 2 94 12 145 6 27 -1 38 -61
103 -36 40 -65 74 -63 76 2 2 45 7 94 12 l90 9 45 87 c25 49 46 88 47 88 2 0
23 -40 48 -89z m-13123 -144 l26 -54 64 -9 63 -9 -43 -45 -42 -45 6 -59 c6
-49 4 -58 -7 -54 -8 3 -33 14 -57 23 -41 17 -44 17 -94 -4 -28 -11 -54 -21
-58 -21 -4 0 -3 26 2 57 l9 56 -42 43 c-24 24 -40 46 -37 49 3 4 31 9 61 12
56 6 56 6 84 59 15 30 30 54 33 54 3 0 18 -24 32 -53z m882 -446 l35 -69 -22
-18 c-14 -12 -17 -13 -9 -3 22 29 -1 29 -57 -2 -72 -39 -74 -41 -58 -63 13
-18 15 -18 48 -1 19 10 47 27 64 39 33 23 58 30 53 14 -2 -5 -35 -26 -73 -46
-39 -20 -71 -37 -73 -38 -1 -1 3 -13 9 -28 l12 -26 75 41 c40 22 76 38 79 35
3 -2 -21 -18 -53 -35 -93 -47 -98 -52 -78 -79 l16 -23 74 41 c41 23 74 39 74
37 0 -3 -30 -22 -67 -43 -38 -20 -70 -39 -72 -40 -2 -2 1 -15 7 -29 l12 -26
40 21 c50 25 52 19 4 -9 -25 -15 -34 -26 -30 -38 5 -13 4 -14 -8 -4 -13 11
-29 5 -91 -29 -41 -23 -75 -39 -75 -36 0 3 34 24 75 47 41 22 75 44 75 48 0 4
-6 16 -14 26 -14 19 -15 19 -58 -4 -23 -13 -58 -33 -75 -43 -18 -11 -33 -16
-33 -11 0 4 34 25 74 47 70 37 74 40 64 62 -6 13 -15 24 -19 24 -5 0 -37 -16
-72 -35 -35 -19 -70 -35 -78 -35 -8 1 21 19 64 41 42 21 77 43 77 47 0 5 -6
17 -14 27 -13 18 -17 17 -84 -23 -75 -45 -82 -47 -82 -32 0 5 28 24 62 41 80
40 89 50 73 73 -12 16 -15 16 -57 -5 -23 -12 -55 -30 -70 -41 -32 -22 -48 -17
-48 15 0 16 3 18 9 9 6 -11 20 -7 64 14 49 24 65 44 36 44 -6 0 -8 -3 -5 -8 2
-4 -14 -8 -36 -8 -22 -1 -43 -5 -47 -10 -22 -31 -82 18 -63 52 11 19 270 164
294 164 12 0 29 -23 52 -69z m-19 -91 c-3 -5 -12 -10 -18 -10 -7 0 -6 4 3 10
19 12 23 12 15 0z m185 -265 c0 -2 -10 -9 -22 -15 -22 -11 -22 -10 -4 4 21 17
26 19 26 11z m-113 -67 c-10 -5 -15 -13 -12 -19 3 -5 -1 -6 -9 -3 -26 10 -18
29 11 31 22 1 24 -1 10 -9z m-87 -43 c0 -2 -13 -11 -30 -20 -38 -19 -40 -11
-2 9 31 17 32 18 32 11z m130 -46 c19 -44 32 -51 71 -35 30 12 37 12 59 -1 18
-10 20 -13 5 -9 -19 6 -19 5 -2 -8 18 -14 18 -15 -2 -25 -29 -16 -91 -14 -97
3 -3 8 -13 12 -24 9 -20 -5 -51 41 -56 83 -3 32 31 19 46 -17z m507 -11 c-8
-5 -7 -8 6 -8 9 0 17 5 17 12 0 6 3 8 6 5 4 -4 2 -12 -4 -19 -7 -9 -6 -18 4
-32 7 -10 11 -23 8 -27 -3 -5 -1 -9 3 -9 5 0 14 -9 21 -20 10 -17 10 -20 -6
-20 -10 0 -24 12 -30 26 -9 19 -17 24 -32 19 -14 -5 -20 -2 -20 9 0 9 5 16 11
16 7 0 8 7 4 18 -4 9 -8 27 -9 39 -3 18 -1 20 15 10 13 -8 15 -13 6 -19z m133
12 c0 -5 -18 -19 -39 -30 -50 -25 -65 -8 -19 20 36 22 58 26 58 10z m-464 -97
c4 -10 6 -24 5 -30 -1 -7 2 -13 7 -13 4 0 16 -16 26 -36 17 -36 17 -36 -4 -31
-17 4 -19 2 -13 -21 3 -15 12 -32 18 -39 7 -6 10 -24 7 -39 -4 -23 -2 -26 12
-21 12 5 16 2 14 -11 -2 -12 3 -16 17 -14 l20 4 -20 -16 c-28 -21 -40 -20 -53
7 -7 12 -16 29 -21 37 -30 46 -101 179 -101 188 0 9 55 49 71 51 4 1 10 -7 15
-16z m-210 -77 c11 -12 24 -33 28 -48 l6 -27 -24 24 c-26 26 -70 33 -82 14 -3
-6 0 -15 7 -20 12 -8 12 -11 -1 -18 -12 -9 -12 -11 2 -16 9 -4 25 -27 35 -51
10 -24 21 -44 26 -44 4 0 7 -6 7 -14 0 -7 7 -19 15 -26 8 -7 15 -16 15 -20 0
-12 -53 1 -72 18 -16 14 -18 13 -18 -3 0 -9 11 -26 25 -37 14 -11 23 -23 20
-28 -3 -5 -1 -11 5 -15 5 -3 10 -19 10 -36 0 -23 4 -29 21 -29 11 0 17 -4 14
-10 -3 -5 2 -10 12 -11 10 -1 0 -5 -22 -10 -91 -22 -199 41 -241 140 -30 71 4
207 64 256 14 11 44 30 66 42 37 20 42 20 51 6 6 -9 19 -26 31 -37z m150 -81
c82 -150 79 -142 64 -160 -28 -33 -48 -17 -101 80 -30 56 -55 92 -61 88 -6 -3
-8 -2 -5 4 4 6 1 24 -6 42 -10 27 -9 34 3 42 33 21 52 4 106 -96z m-431 -139
c13 -38 13 -38 -11 -33 -29 5 -33 -8 -4 -16 13 -3 20 -14 20 -29 0 -13 10 -30
21 -38 12 -8 27 -21 35 -27 7 -7 16 -13 20 -13 13 0 44 -32 44 -46 0 -18 -71
-184 -79 -184 -3 0 -15 17 -27 38 -11 20 -64 116 -117 212 -53 96 -99 182
-102 191 -5 14 3 14 91 -1 l96 -16 13 -38z m620 -164 c2 -2 30 12 63 30 49 26
65 31 79 22 23 -14 66 -92 59 -109 -3 -8 0 -16 7 -19 7 -3 1 -3 -12 0 -13 4
-21 2 -18 -3 4 -5 1 -10 -6 -10 -19 0 -107 -43 -107 -51 0 -5 6 -16 13 -25 11
-15 18 -13 81 24 38 22 74 38 80 36 6 -2 -24 -23 -66 -46 -43 -24 -78 -46 -78
-50 0 -4 6 -15 13 -25 12 -16 18 -15 86 24 40 23 75 39 79 36 8 -8 6 -9 -75
-50 -40 -20 -73 -40 -73 -44 0 -5 6 -17 14 -27 13 -18 16 -17 80 18 37 20 72
37 79 37 7 0 -17 -16 -52 -35 -82 -44 -86 -48 -70 -73 9 -15 17 -18 25 -11 7
5 26 14 42 19 24 6 30 5 26 -5 -4 -8 6 -16 25 -20 17 -3 34 -6 37 -5 4 1 10
-2 13 -7 3 -5 17 -13 30 -19 l24 -10 -34 -26 c-19 -14 -87 -53 -151 -87 l-117
-62 -20 20 c-11 11 -24 33 -27 48 -4 16 -14 33 -23 40 -13 9 -10 14 22 29 20
10 37 22 37 26 0 5 18 17 40 27 35 16 38 20 27 35 -12 16 -17 15 -72 -15 -33
-17 -65 -36 -72 -41 -7 -5 -14 -5 -17 1 -4 5 28 28 69 51 41 23 74 45 72 48
-2 4 -7 15 -10 24 -6 16 -15 13 -82 -23 -42 -22 -79 -38 -82 -36 -3 3 29 24
71 47 71 39 74 42 64 65 l-11 24 -81 -40 c-86 -42 -85 -39 7 17 60 37 62 40
47 64 -8 13 -21 9 -87 -23 -88 -44 -81 -24 11 28 34 19 55 35 48 35 -7 0 -11
4 -7 9 3 5 0 13 -7 17 -7 4 -10 4 -6 -1 14 -15 -13 -47 -34 -42 -24 7 -50 -2
-42 -14 3 -5 0 -9 -5 -9 -6 0 -11 6 -12 13 0 9 -2 9 -5 0 -3 -7 -12 -9 -20 -6
-10 4 -12 0 -7 -13 10 -28 -15 -7 -32 26 -14 26 -12 60 4 60 3 0 30 14 59 31
l53 30 -25 44 c-24 41 -25 45 -9 54 14 8 22 2 42 -32 13 -23 25 -43 26 -45z
m334 -296 c-2 -2 -15 -9 -29 -15 -24 -11 -24 -11 -6 3 16 13 49 24 35 12z
m-264 -116 c-3 -5 -14 -10 -23 -9 -14 0 -13 2 3 9 27 11 27 11 20 0z m11888
-751 c46 -12 55 -31 33 -64 -19 -30 -20 -30 52 -9 47 14 83 16 202 11 158 -7
232 -22 328 -67 83 -39 82 -47 -5 -65 -54 -11 -45 -21 20 -23 186 -8 354 -88
493 -235 68 -72 148 -193 138 -208 -3 -5 -31 9 -62 30 -108 73 -156 91 -332
128 -104 21 -154 26 -295 27 -152 1 -175 -1 -215 -20 l-44 -20 72 -23 c40 -13
93 -37 117 -53 52 -34 145 -133 145 -154 0 -18 6 -18 -79 11 -125 42 -356 67
-449 49 l-31 -6 41 -32 c45 -34 85 -82 76 -91 -3 -4 -32 1 -64 11 -43 12 -82
15 -158 12 -92 -4 -118 -11 -281 -67 -255 -89 -300 -101 -392 -108 -206 -15
-363 72 -447 247 -28 59 -31 74 -31 165 0 93 2 105 32 166 92 187 259 286 628
371 159 36 410 45 508 17z m-13458 -297 c-3 -3 -11 0 -18 7 -9 10 -8 11 6 5
10 -3 15 -9 12 -12z m-58 2 c-3 -3 -12 -4 -19 -1 -8 3 -5 6 6 6 11 1 17 -2 13
-5z m-161 -43 c-6 -9 -46 -22 -46 -15 0 3 10 9 23 14 29 11 29 11 23 1z m31
-25 c-8 -8 -17 -13 -20 -10 -2 3 -23 -3 -46 -12 -23 -9 -54 -14 -69 -11 l-27
5 23 -18 c22 -19 29 -40 13 -40 -5 0 -23 14 -40 31 -31 31 -40 46 -20 33 10
-6 58 13 69 28 3 4 12 3 20 -2 12 -8 11 -10 -4 -10 -14 0 -17 -3 -9 -11 7 -7
17 -7 29 -1 38 20 89 40 93 36 2 -2 -3 -10 -12 -18z m-67 -71 c0 -8 -7 -15
-15 -15 -13 0 -14 3 -3 15 16 18 18 18 18 0z m10 -60 c0 -12 -19 -12 -23 0 -4
9 -1 12 9 8 7 -3 14 -7 14 -8z m45 -35 c3 -5 1 -10 -4 -10 -6 0 -11 5 -11 10
0 6 2 10 4 10 3 0 8 -4 11 -10z m-610 -89 c3 -5 2 -12 -3 -15 -5 -3 -9 1 -9 9
0 17 3 19 12 6z m-89 -78 c-1 -7 -5 -15 -9 -18 -4 -3 -5 -2 -2 2 3 3 -2 11
-11 17 -13 10 -13 12 4 12 11 0 19 -6 18 -13z m-41 -3 c3 -5 1 -10 -4 -10 -6
0 -11 5 -11 10 0 6 2 10 4 10 3 0 8 -4 11 -10z m1120 -575 c-23 -8 -85 -10
-85 -3 0 4 21 8 48 7 26 0 43 -2 37 -4z m1112 -571 c-3 -3 -12 -4 -19 -1 -8 3
-5 6 6 6 11 1 17 -2 13 -5z m66 -1 c-7 -2 -21 -2 -30 0 -10 3 -4 5 12 5 17 0
24 -2 18 -5z m-105 -20 c-10 -2 -28 -2 -40 0 -13 2 -5 4 17 4 22 1 32 -1 23
-4z m155 0 c-13 -2 -35 -2 -50 0 -16 2 -5 4 22 4 28 0 40 -2 28 -4z m-190 -20
c-13 -2 -33 -2 -45 0 -13 2 -3 4 22 4 25 0 35 -2 23 -4z m74 1 c-3 -3 -12 -4
-19 -1 -8 3 -5 6 6 6 11 1 17 -2 13 -5z m50 0 c-3 -3 -12 -4 -19 -1 -8 3 -5 6
6 6 11 1 17 -2 13 -5z m-1504 -1051 c-7 -2 -21 -2 -30 0 -10 3 -4 5 12 5 17 0
24 -2 18 -5z m-66 -9 c-3 -3 -12 -4 -19 -1 -8 3 -5 6 6 6 11 1 17 -2 13 -5z
m-254 -91 c-7 -2 -19 -2 -25 0 -7 3 -2 5 12 5 14 0 19 -2 13 -5z m6533 -97
l47 -94 80 -7 c140 -13 137 -8 53 -101 l-72 -80 14 -92 c9 -51 12 -95 9 -98
-3 -4 -46 11 -96 31 l-90 37 -91 -37 c-49 -21 -93 -36 -95 -33 -3 3 1 47 8 98
l14 93 -73 82 -73 83 28 5 c15 3 63 9 105 13 l77 7 47 93 c25 52 49 94 54 94
4 0 28 -42 54 -94z m-6603 -233 c-7 -2 -19 -2 -25 0 -7 3 -2 5 12 5 14 0 19
-2 13 -5z"/>
<path d="M1735 8460 c-4 -6 1 -7 11 -3 13 5 15 3 9 -7 -5 -9 -4 -11 4 -6 6 4
9 12 6 17 -8 12 -22 12 -30 -1z"/>
<path d="M1778 8433 c7 -3 16 -2 19 1 4 3 -2 6 -13 5 -11 0 -14 -3 -6 -6z"/>
<path d="M1960 6526 c7 -7 13 -7 20 0 6 6 3 10 -10 10 -13 0 -16 -4 -10 -10z"/>
<path d="M1885 6510 c3 -5 8 -10 11 -10 2 0 4 5 4 10 0 6 -5 10 -11 10 -5 0
-7 -4 -4 -10z"/>
<path d="M1935 6510 c3 -5 8 -10 11 -10 2 0 4 5 4 10 0 6 -5 10 -11 10 -5 0
-7 -4 -4 -10z"/>
<path d="M1820 6490 c-8 -5 -10 -10 -5 -10 6 0 17 5 25 10 8 5 11 10 5 10 -5
0 -17 -5 -25 -10z"/>
<path d="M13965 4150 c4 -6 12 -7 18 -4 7 4 9 4 6 0 -4 -4 3 -18 14 -30 l21
-24 11 22 c12 22 43 24 58 3 6 -8 7 -5 3 6 -3 10 -6 20 -6 23 0 2 -6 1 -14 -2
-8 -3 -17 -1 -21 5 -3 6 -26 11 -51 11 -28 0 -43 -4 -39 -10z"/>
<path d="M13943 4133 c-7 -2 -9 -12 -6 -20 6 -14 8 -14 14 3 7 17 8 17 8 2 1
-18 21 -26 21 -9 0 13 -24 29 -37 24z"/>
<path d="M13690 4109 c0 -5 5 -7 11 -3 6 3 15 0 20 -7 7 -11 9 -10 9 4 0 10
-8 17 -20 17 -11 0 -20 -5 -20 -11z"/>
<path d="M14050 4111 c0 -12 26 -32 33 -25 3 4 0 13 -8 20 -16 16 -25 18 -25
5z"/>
<path d="M13957 4079 c7 -7 15 -10 18 -7 3 3 -2 9 -12 12 -14 6 -15 5 -6 -5z"/>
<path d="M13994 4071 c7 -11 46 -35 46 -28 0 3 -12 12 -26 22 -15 9 -23 12
-20 6z"/>
<path d="M14040 4071 c0 -6 5 -13 10 -16 6 -3 10 1 10 9 0 9 -4 16 -10 16 -5
0 -10 -4 -10 -9z"/>
<path d="M14405 4072 c-16 -11 -12 -45 5 -50 12 -3 12 -2 3 8 -12 13 -7 40 8
40 5 0 8 -3 7 -7 -4 -21 23 -63 42 -63 22 0 27 15 8 23 -10 4 -10 6 0 6 22 2
13 20 -18 36 -33 17 -40 18 -55 7z"/>
<path d="M14237 4059 c7 -7 15 -10 18 -7 3 3 -2 9 -12 12 -14 6 -15 5 -6 -5z"/>
<path d="M15090 4059 c0 -5 5 -7 10 -4 6 3 10 8 10 11 0 2 -4 4 -10 4 -5 0
-10 -5 -10 -11z"/>
<path d="M14495 4030 c-8 -13 5 -13 25 0 13 8 13 10 -2 10 -9 0 -20 -4 -23
-10z"/>
<path d="M14860 4031 c0 -5 6 -12 13 -14 12 -5 -18 -11 -37 -8 -5 1 -4 -5 4
-13 7 -9 18 -16 24 -16 7 0 6 4 -2 9 -10 6 -9 10 7 14 24 6 28 22 6 31 -8 3
-15 1 -15 -3z"/>
<path d="M14520 4010 c0 -5 5 -10 11 -10 5 0 7 5 4 10 -3 6 -8 10 -11 10 -2 0
-4 -4 -4 -10z"/>
<path d="M14403 4003 c-20 -7 -15 -31 7 -43 13 -7 20 -7 20 -1 0 6 8 7 18 4
16 -7 16 -5 1 17 -17 26 -27 31 -46 23z m12 -23 c3 -5 1 -10 -4 -10 -6 0 -11
5 -11 10 0 6 2 10 4 10 3 0 8 -4 11 -10z"/>
<path d="M13567 3972 c-10 -2 -30 -10 -45 -18 l-27 -14 33 0 c17 0 32 5 32 10
0 6 16 10 35 10 21 0 35 -5 35 -12 0 -9 3 -8 10 2 7 12 12 12 22 2 15 -15 28
-16 28 -2 0 6 -3 9 -7 8 -5 0 -15 1 -23 5 -22 8 -72 13 -93 9z"/>
<path d="M13588 3943 c7 -3 16 -2 19 1 4 3 -2 6 -13 5 -11 0 -14 -3 -6 -6z"/>
<path d="M13700 3936 c0 -2 7 -6 15 -10 8 -3 15 -1 15 4 0 6 -7 10 -15 10 -8
0 -15 -2 -15 -4z"/>
<path d="M13458 3913 c-9 -10 -13 -24 -10 -32 3 -8 0 -11 -7 -7 -6 4 -11 2
-11 -3 0 -16 16 -13 30 4 9 11 10 15 1 15 -8 0 -7 6 3 16 15 15 20 24 13 24
-2 0 -11 -8 -19 -17z"/>
<path d="M13748 3916 c-10 -7 -18 -18 -18 -23 0 -14 31 -39 60 -48 14 -4 31
-16 38 -26 16 -23 52 -25 52 -3 0 14 -3 14 -15 4 -12 -10 -19 -10 -27 -2 -9 9
-8 12 3 12 7 0 22 11 32 25 16 23 16 24 -5 39 -12 9 -28 16 -35 16 -7 0 -13 5
-13 10 0 14 -52 12 -72 -4z m47 -6 c3 -5 -3 -10 -15 -10 -12 0 -18 5 -15 10 3
6 10 10 15 10 5 0 12 -4 15 -10z"/>
<path d="M13868 3910 c17 -11 32 -25 32 -31 0 -6 7 -9 15 -5 8 3 15 0 15 -6 0
-6 3 -9 6 -5 3 3 1 14 -5 24 -6 10 -11 14 -11 10 0 -4 -10 1 -22 13 -12 11
-31 20 -42 20 -17 0 -15 -4 12 -20z"/>
<path d="M13597 3892 c-20 -21 -22 -38 -6 -48 11 -6 69 42 69 58 0 15 -47 8
-63 -10z"/>
<path d="M13451 3853 c-12 -8 -21 -19 -21 -25 0 -12 134 -191 163 -219 25 -23
37 -24 37 -5 0 12 -26 30 -40 29 -3 -1 -11 5 -18 13 -7 8 -9 14 -5 14 4 0 -8
15 -25 33 -29 30 -31 35 -17 47 20 16 20 76 0 84 -8 3 -15 12 -15 20 0 20 -35
26 -59 9z m49 -28 c14 -17 6 -65 -11 -65 -6 0 -9 7 -5 15 3 8 0 14 -7 12 -7
-1 -11 6 -9 17 2 10 -1 15 -7 12 -5 -4 -13 -1 -17 5 -4 7 -3 9 4 5 6 -3 13 -2
17 4 9 14 20 12 35 -5z"/>
<path d="M14355 3830 c-3 -5 -3 -10 2 -10 4 0 2 -4 -6 -9 -9 -6 -10 -11 -2
-15 6 -4 11 -2 11 4 0 7 13 9 38 5 l37 -6 -24 20 c-25 23 -46 27 -56 11z"/>
<path d="M13795 3820 c4 -6 -5 -10 -20 -10 -24 0 -25 -3 -22 -37 3 -28 9 -37
25 -38 12 -1 18 3 15 11 -2 6 0 15 6 19 14 8 14 65 0 65 -5 0 -7 -4 -4 -10z"/>
<path d="M13926 3805 c-3 -8 -13 -15 -23 -15 -16 0 -16 -2 -3 -11 11 -7 12
-12 3 -15 -7 -3 -9 -12 -6 -20 3 -7 10 -11 16 -7 6 4 8 0 4 -10 -20 -49 -20
-52 -6 -39 19 18 32 15 24 -5 -4 -10 -8 -25 -9 -33 -1 -15 -34 -50 -81 -86
-18 -14 -17 -14 10 0 17 8 50 36 75 62 25 26 37 42 27 35 -9 -8 -20 -11 -23
-9 -8 9 27 39 38 32 15 -9 28 16 27 51 -2 30 -2 30 -10 -5 -7 -30 -7 -27 -5
18 3 49 1 54 -21 63 -31 12 -30 12 -37 -6z"/>
<path d="M14380 3785 c7 -8 17 -12 22 -9 6 4 5 10 -3 15 -22 14 -33 10 -19 -6z"/>
<path d="M14360 3765 c7 -8 20 -15 28 -15 13 0 12 3 -4 15 -25 19 -40 19 -24
0z"/>
<path d="M14415 3769 c-11 -17 1 -21 15 -4 8 9 8 15 2 15 -6 0 -14 -5 -17 -11z"/>
<path d="M13602 3752 c-19 -13 12 -67 55 -93 29 -18 39 -20 55 -10 10 6 24 9
30 5 10 -7 28 13 28 31 -1 6 -5 2 -10 -7 -11 -18 -13 -16 -90 58 -26 25 -46
30 -68 16z"/>
<path d="M13860 3740 c0 -5 -6 -7 -13 -4 -22 8 -50 -32 -43 -60 8 -32 45 -45
62 -21 8 10 18 14 26 9 11 -6 11 -5 0 8 -9 11 -10 18 -2 23 16 10 12 29 -10
43 -11 7 -20 8 -20 2z"/>
<path d="M13880 3640 c0 -5 5 -10 10 -10 6 0 10 5 10 10 0 6 -4 10 -10 10 -5
0 -10 -4 -10 -10z"/>
<path d="M13790 3615 c1 -26 2 -28 11 -12 8 14 8 22 0 30 -8 8 -11 3 -11 -18z"/>
<path d="M13746 3615 c4 -8 1 -15 -5 -15 -6 0 -11 -4 -11 -10 0 -5 7 -7 15 -4
16 7 21 44 5 44 -5 0 -7 -7 -4 -15z"/>
<path d="M13700 3610 c-13 -8 -12 -10 3 -10 9 0 17 5 17 10 0 12 -1 12 -20 0z"/>
<path d="M13658 3583 c12 -2 30 -2 40 0 9 3 -1 5 -23 4 -22 0 -30 -2 -17 -4z"/>
<path d="M13805 3576 c-16 -6 -25 -15 -20 -18 6 -3 24 3 40 13 34 22 24 24
-20 5z"/>
<path d="M13629 3528 c-10 -18 -8 -24 11 -40 44 -35 81 2 44 43 -22 25 -41 24
-55 -3z"/>
<path d="M808 3123 c6 -2 18 -2 25 0 6 3 1 5 -13 5 -14 0 -19 -2 -12 -5z"/>
<path d="M2057 2713 c18 -2 50 -2 70 0 21 2 7 4 -32 4 -38 0 -55 -2 -38 -4z"/>
<path d="M2060 2660 c0 -22 5 -40 10 -40 6 0 10 18 10 40 0 22 -4 40 -10 40
-5 0 -10 -18 -10 -40z"/>
<path d="M618 2613 c7 -3 16 -2 19 1 4 3 -2 6 -13 5 -11 0 -14 -3 -6 -6z"/>
<path d="M738 2613 c12 -2 32 -2 45 0 12 2 2 4 -23 4 -25 0 -35 -2 -22 -4z"/>
<path d="M2013 2523 c9 -2 23 -2 30 0 6 3 -1 5 -18 5 -16 0 -22 -2 -12 -5z"/>
<path d="M2088 2523 c7 -3 16 -2 19 1 4 3 -2 6 -13 5 -11 0 -14 -3 -6 -6z"/>
<path d="M1738 2443 c7 -3 16 -2 19 1 4 3 -2 6 -13 5 -11 0 -14 -3 -6 -6z"/>
<path d="M311 1351 c-10 -6 1 -8 30 -4 24 3 46 7 48 9 10 9 -65 3 -78 -5z"/>
<path d="M203 983 c-15 -6 -17 -33 -3 -33 6 0 10 7 10 16 0 13 7 15 35 11 19
-3 35 -2 35 4 0 9 -55 11 -77 2z"/>
<path d="M168 933 c6 -2 18 -2 25 0 6 3 1 5 -13 5 -14 0 -19 -2 -12 -5z"/>
<path d="M1440 893 c-8 -4 -21 -12 -28 -20 -11 -11 -10 -13 5 -13 22 0 37 11
41 28 1 6 1 12 0 11 -2 0 -10 -3 -18 -6z"/>
<path d="M1350 771 c10 -7 3 -11 -25 -14 -22 -2 -16 -3 14 -1 65 4 96 24 36
24 -28 0 -36 -3 -25 -9z"/>
<path d="M1243 733 c9 -2 23 -2 30 0 6 3 -1 5 -18 5 -16 0 -22 -2 -12 -5z"/>
</g>
</svg>
